<svg width="18" height="25" viewBox="0 0 18 25" fill="none" xmlns="http://www.w3.org/2000/svg">
<path d="M2.11621 22.2471L14.3301 24.4062C16.5215 24.793 17.8535 23.5791 17.8535 21.1836V7.89551C17.8535 6.72461 17.5312 5.95117 16.8975 5.4248V3.34082C16.8975 1.08496 15.3828 0 12.8369 0.451172L1.7832 2.40625C0.6875 2.53516 0 3.3623 0 4.65137V19.8086C0 21.1943 0.708984 22 2.11621 22.2471ZM14.5449 4.5332L6.83203 3.16895L13.4492 2.07324C14.5234 1.89062 15.168 2.3418 15.168 3.27637V4.66211C14.9639 4.6084 14.7598 4.56543 14.5449 4.5332ZM2.53516 20.5391C1.9873 20.4531 1.72949 20.1309 1.72949 19.5615V4.94141C1.72949 4.36133 2.11621 4.07129 2.75 4.17871L14.459 6.23047C15.5439 6.43457 16.124 6.875 16.124 7.87402V21.001C16.124 22.2148 15.415 22.8271 14.2549 22.6123L2.53516 20.5391ZM4.41504 8.90527L12.6973 10.3662C13.2021 10.4521 13.5137 10.1406 13.5137 9.68945C13.5137 9.28125 13.3096 9.06641 12.9336 8.99121L4.69434 7.55176C4.2002 7.46582 3.85645 7.75586 3.85645 8.19629C3.85645 8.57227 4.06055 8.84082 4.41504 8.90527ZM4.41504 13.0947L12.6973 14.5557C13.2021 14.6416 13.5137 14.3301 13.5137 13.8789C13.5137 13.4707 13.3096 13.2559 12.9336 13.1807L4.69434 11.7412C4.2002 11.6553 3.85645 11.9453 3.85645 12.3857C3.85645 12.7617 4.06055 13.0303 4.41504 13.0947Z" fill="white"/>
</svg>
